<svg xmlns="http://www.w3.org/2000/svg" xmlns:xlink="http://www.w3.org/1999/xlink" id="Layer_1" x="0px" y="0px" viewBox="0 0 100 100" style="enable-background:new 0 0 100 100;" xml:space="preserve"><style type="text/css">	.st0{fill:#1F67B2;}	.st1{fill:#F4C573;}</style><g>	<rect x="61.3" y="0" class="st0" width="12.21" height="45.67"/>	<path class="st0" d="M73.51,53.96V76.2c0,8.91-7.27,16.13-16.23,16.13h0c-8.97,0-16.23-7.22-16.23-16.13V53.96h12.21V76.2  c0,2.21,1.8,4,4.03,4h0c2.22,0,4.03-1.79,4.03-4V53.96H73.51z"/>	<path class="st0" d="M53.25,16.29v29.38H41.04V16.29c0-2.3-1.87-4.16-4.18-4.16h0c-2.31,0-4.18,1.86-4.18,4.16v6.55h5.21v12.13  h-5.21v10.71H20.47V16.29C20.47,7.29,27.81,0,36.86,0h0C45.91,0,53.25,7.29,53.25,16.29z"/>	<path class="st1" d="M93.69,71.71v2.2c0,3.28,2.68,5.94,5.98,5.94h0v12.13h-2.32c-8.76,0-15.87-7.06-15.87-15.77V0h12.21v59.58  h5.98v12.13H93.69z"/>	<path class="st0" d="M19.13,54.14C8.57,54.14,0,62.65,0,73.15c0,10.5,8.57,19.01,19.13,19.01c10.57,0,19.14-8.51,19.14-19.01  C38.27,62.65,29.7,54.14,19.13,54.14z M19.13,79.18c-3.35,0-6.07-2.7-6.07-6.03c0-3.33,2.72-6.03,6.07-6.03  c3.35,0,6.07,2.7,6.07,6.03C25.2,76.48,22.49,79.18,19.13,79.18z"/>	<g>		<path class="st0" d="M1.07,96.05v2.36c0,0.72,0.28,1.03,0.7,1.03c0.44,0,0.71-0.31,0.71-1.03v-2.36h0.69v2.3   c0,1.14-0.55,1.66-1.42,1.66c-0.85,0-1.36-0.5-1.36-1.65v-2.31H1.07z"/>		<path class="st0" d="M6.26,99.94v-3.89h0.75l0.91,1.67c0.22,0.41,0.44,0.88,0.6,1.28l0.01,0c-0.04-0.51-0.07-1.04-0.07-1.67v-1.28   h0.63v3.89H8.4l-0.91-1.7c-0.22-0.41-0.45-0.88-0.62-1.31l-0.02,0c0.03,0.49,0.04,1.01,0.04,1.7v1.3H6.26z"/>		<path class="st0" d="M12.88,96.05v3.89h-0.69v-3.89H12.88z"/>		<path class="st0" d="M16.65,96.64h-0.99v-0.59h2.68v0.59h-1v3.31h-0.69V96.64z"/>		<path class="st0" d="M23.1,98.2h-1.31v1.17h1.47v0.57H21.1v-3.89h2.08v0.57h-1.39v1.02h1.31V98.2z"/>		<path class="st0" d="M26.18,96.1c0.28-0.05,0.63-0.08,1.01-0.08c0.65,0,1.1,0.14,1.42,0.41c0.36,0.3,0.59,0.78,0.59,1.48   c0,0.74-0.23,1.26-0.58,1.58c-0.35,0.33-0.9,0.49-1.59,0.49c-0.36,0-0.64-0.02-0.85-0.05V96.1z M26.86,99.41   c0.09,0.02,0.21,0.02,0.33,0.02c0.78,0,1.28-0.46,1.28-1.51c0-0.87-0.42-1.37-1.21-1.37c-0.18,0-0.31,0.02-0.4,0.04V99.41z"/>		<path class="st0" d="M36.26,98.87l-0.3,1.07h-0.7l1.14-3.89h0.86l1.13,3.89h-0.72l-0.31-1.07H36.26z M37.26,98.35l-0.27-0.94   c-0.07-0.25-0.13-0.54-0.18-0.78H36.8c-0.05,0.24-0.11,0.54-0.17,0.78l-0.26,0.94H37.26z"/>		<path class="st0" d="M41.24,96.1c0.26-0.05,0.62-0.08,0.98-0.08c0.51,0,0.88,0.09,1.14,0.31c0.22,0.19,0.33,0.45,0.33,0.78   c0,0.49-0.31,0.83-0.68,0.98v0.01c0.28,0.1,0.44,0.37,0.53,0.77c0.11,0.48,0.21,0.92,0.29,1.07h-0.71   c-0.06-0.11-0.15-0.45-0.25-0.93c-0.1-0.51-0.27-0.67-0.65-0.68h-0.3v1.61h-0.68V96.1z M41.92,97.83h0.34   c0.45,0,0.73-0.26,0.73-0.65c0-0.41-0.26-0.63-0.7-0.63c-0.18,0-0.31,0.01-0.37,0.03V97.83z"/>		<path class="st0" d="M47.4,98.87l-0.3,1.07h-0.7l1.14-3.89h0.86l1.13,3.89h-0.72l-0.31-1.07H47.4z M48.4,98.35l-0.27-0.94   c-0.07-0.25-0.13-0.54-0.18-0.78h-0.01c-0.05,0.24-0.11,0.54-0.17,0.78l-0.26,0.94H48.4z"/>		<path class="st0" d="M52.38,96.1c0.22-0.05,0.59-0.08,0.96-0.08c0.48,0,0.81,0.07,1.07,0.25c0.23,0.15,0.37,0.4,0.37,0.72   c0,0.36-0.22,0.69-0.63,0.84v0.02c0.43,0.11,0.77,0.45,0.77,0.96c0,0.34-0.14,0.6-0.35,0.79c-0.26,0.24-0.7,0.36-1.37,0.36   c-0.37,0-0.64-0.02-0.81-0.05V96.1z M53.06,97.65h0.31c0.44,0,0.71-0.24,0.71-0.58c0-0.35-0.24-0.54-0.67-0.54   c-0.18,0-0.28,0.01-0.35,0.03V97.65z M53.06,99.44c0.08,0.02,0.18,0.02,0.32,0.02c0.43,0,0.81-0.19,0.81-0.66   c0-0.45-0.38-0.65-0.83-0.65h-0.3V99.44z"/>		<path class="st0" d="M63.28,98.2h-1.31v1.17h1.47v0.57h-2.16v-3.89h2.08v0.57h-1.39v1.02h1.31V98.2z"/>		<path class="st0" d="M69.38,98.38c-0.02-0.48-0.05-1.07-0.04-1.57h-0.02c-0.11,0.46-0.26,0.97-0.41,1.43l-0.52,1.65h-0.51   l-0.48-1.63c-0.14-0.47-0.27-0.98-0.36-1.46h-0.01c-0.01,0.49-0.04,1.08-0.07,1.59l-0.08,1.54h-0.63l0.26-3.89h0.86l0.47,1.57   c0.13,0.47,0.25,0.92,0.34,1.36h0.02c0.09-0.43,0.21-0.88,0.35-1.36l0.49-1.57h0.85l0.23,3.89h-0.66L69.38,98.38z"/>		<path class="st0" d="M73.81,96.05v3.89h-0.69v-3.89H73.81z"/>		<path class="st0" d="M76.92,96.1c0.26-0.05,0.62-0.08,0.98-0.08c0.51,0,0.88,0.09,1.14,0.31c0.22,0.19,0.33,0.45,0.33,0.78   c0,0.49-0.31,0.83-0.68,0.98v0.01c0.28,0.1,0.44,0.37,0.53,0.77c0.11,0.48,0.21,0.92,0.29,1.07h-0.71   c-0.06-0.11-0.15-0.45-0.25-0.93c-0.1-0.51-0.27-0.67-0.65-0.68h-0.3v1.61h-0.68V96.1z M77.6,97.83h0.34   c0.45,0,0.73-0.26,0.73-0.65c0-0.41-0.26-0.63-0.7-0.63c-0.18,0-0.31,0.01-0.37,0.03V97.83z"/>		<path class="st0" d="M83.08,98.87l-0.3,1.07h-0.7l1.14-3.89h0.86l1.13,3.89h-0.72l-0.31-1.07H83.08z M84.08,98.35l-0.27-0.94   c-0.07-0.25-0.13-0.54-0.18-0.78h-0.01c-0.05,0.24-0.11,0.54-0.17,0.78l-0.26,0.94H84.08z"/>		<path class="st0" d="M88.29,96.64H87.3v-0.59h2.68v0.59h-1v3.31h-0.69V96.64z"/>		<path class="st0" d="M94.75,98.2h-1.31v1.17h1.47v0.57h-2.16v-3.89h2.08v0.57h-1.39v1.02h1.31V98.2z"/>		<path class="st0" d="M97.79,99.2c0.21,0.12,0.53,0.22,0.85,0.22c0.43,0,0.68-0.22,0.68-0.53c0-0.3-0.2-0.47-0.64-0.67   c-0.58-0.24-0.96-0.6-0.96-1.12c0-0.63,0.5-1.11,1.32-1.11c0.37,0,0.66,0.09,0.83,0.18l-0.15,0.56c-0.13-0.07-0.37-0.17-0.69-0.17   c-0.42,0-0.61,0.24-0.61,0.47c0,0.3,0.21,0.44,0.69,0.65c0.63,0.28,0.91,0.63,0.91,1.15c0,0.65-0.48,1.16-1.4,1.16   c-0.38,0-0.77-0.11-0.95-0.22L97.79,99.2z"/>	</g></g></svg>